<?xml version="1.0" encoding="utf-8"?>
<svg version="1.1"
	 xmlns="http://www.w3.org/2000/svg" xmlns:xlink="http://www.w3.org/1999/xlink" xmlns:a="http://ns.adobe.com/AdobeSVGViewerExtensions/3.0/"
	 x="0px" y="0px" width="800px" height="600px" viewBox="-272 -76 800 600" style="enable-background:new -272 -76 800 600;"
	 xml:space="preserve">
<defs>
</defs>
<path d="M37.699,0C16.805,0,0,16.805,0,37.699v372.574C0,431.168,16.805,448,37.699,448h179.426
	c20.895,0,37.727-16.832,37.727-37.727V37.699C254.852,16.805,238.02,0,217.125,0H37.699z M106.926,34.852H149.5
	c3.086,0,5.574,2.488,5.574,5.574c0,3.086-2.488,5.574-5.574,5.574h-42.574c-3.086,0-5.574-2.488-5.574-5.574
	C101.352,37.34,103.84,34.852,106.926,34.852L106.926,34.852z M91.949,35.426c3.078,0,5.574,2.496,5.574,5.574
	s-2.496,5.574-5.574,5.574c-3.078,0-5.551-2.496-5.551-5.574S88.871,35.426,91.949,35.426L91.949,35.426z M20.102,72.324h213.722
	v300.574H20.102V72.324z M126.199,387.199c12.977,0,23.477,10.5,23.477,23.477c0,12.973-10.5,23.5-23.477,23.5
	c-12.972,0-23.5-10.527-23.5-23.5C102.699,397.699,113.227,387.199,126.199,387.199L126.199,387.199z"/>
</svg>
