<?xml version="1.0" encoding="utf-8"?>
<svg version="1.1"
	 xmlns="http://www.w3.org/2000/svg" xmlns:xlink="http://www.w3.org/1999/xlink" xmlns:a="http://ns.adobe.com/AdobeSVGViewerExtensions/3.0/"
	 x="0px" y="0px" width="800px" height="600px" viewBox="-255.404 -64 800 600"
	 style="enable-background:new -255.404 -64 800 600;" xml:space="preserve">
<defs>
</defs>
<path style="fill:none;" d="M188.598,421.132h-88c-3.933,0-7.133,3.2-7.133,7.133v0.477c0,3.935,3.2,7.133,7.133,7.133h88
	c3.933,0,7.132-3.198,7.132-7.133v-0.477C195.729,424.332,192.53,421.132,188.598,421.132z"/>
<path style="fill:none;" d="M159.146,445.734h-28.195c-4.623,0-8.384,3.763-8.384,8.387v0.528c0,4.622,3.761,8.383,8.384,8.383
	h28.195c4.623,0,8.383-3.761,8.383-8.383v-0.528C167.529,449.497,163.77,445.734,159.146,445.734z"/>
<path style="fill:none;" d="M188.598,372.383h-88c-3.933,0-7.133,3.197-7.133,7.128v0.481c0,3.931,3.2,7.128,7.133,7.128h88
	c3.933,0,7.132-3.197,7.132-7.128v-0.481C195.729,375.58,192.53,372.383,188.598,372.383z"/>
<path style="fill:none;" d="M188.598,396.758h-88c-3.933,0-7.133,3.199-7.133,7.132v0.478c0,3.934,3.2,7.132,7.133,7.132h88
	c3.933,0,7.132-3.198,7.132-7.132v-0.478C195.729,399.957,192.53,396.758,188.598,396.758z"/>
<path style="fill:none;" d="M31.227,69.251c-26.065,41.335-28.543,87.915-7.154,134.685c8.508,17.965,19.479,35.779,31.093,54.64
	c4.879,7.922,9.923,16.114,14.883,24.489c11.426,17.317,11.083,40.312,10.856,55.538c-0.074,4.989-0.138,9.297,0.285,11.395
	c1.012,5.004,6.946,11.428,10.876,15.102c2.5-1.486,5.419-2.34,8.532-2.34h88c2.977,0,5.772,0.78,8.198,2.146
	c4.413-4.143,9.732-10.336,10.659-14.911c0.423-2.095,0.358-6.402,0.284-11.392c-0.227-15.227-0.568-38.22,10.855-55.538
	c4.96-8.373,10.003-16.562,14.881-24.482c11.615-18.862,22.587-36.679,31.122-54.705c21.362-46.711,18.885-93.291-7.191-134.644
	C239.14,40.533,200.113,10.512,144.32,9.612C88.517,10.508,49.501,40.532,31.227,69.251z"/>
<path d="M136.629,0.044l0.006,0.217c-23.119,1.37-44.664,7.48-64.215,18.236C51.981,29.743,34.929,45.507,23.097,64.101
	c-27.892,44.233-30.581,93.971-7.75,143.895c8.761,18.501,19.866,36.534,31.623,55.626c4.877,7.92,9.92,16.109,14.858,24.448
	l0.13,0.209c9.849,14.847,9.532,36.108,9.323,50.179c-0.085,5.772-0.154,10.332,0.474,13.444
	c1.629,8.062,9.358,16.184,13.777,20.274c-1.083,2.216-1.692,4.706-1.692,7.334v0.481c0,4.673,1.925,8.906,5.022,11.948
	c-3.098,3.042-5.022,7.275-5.022,11.949v0.478c0,4.674,1.923,8.907,5.021,11.948c-3.097,3.042-5.021,7.274-5.021,11.949v0.477
	c0,9.24,7.517,16.757,16.757,16.757h14.548c-1.403,2.562-2.202,5.501-2.202,8.623v0.528c0,9.929,8.078,18.007,18.008,18.007h28.195
	c9.929,0,18.008-8.078,18.008-18.007v-0.528c0-3.122-0.798-6.061-2.203-8.623h13.646c9.239,0,16.757-7.517,16.757-16.757v-0.477
	c0-4.675-1.924-8.907-5.021-11.949c3.098-3.041,5.021-7.274,5.021-11.948v-0.478c0-4.674-1.925-8.907-5.023-11.949
	c3.099-3.042,5.023-7.275,5.023-11.948v-0.481c0-2.769-0.676-5.381-1.871-7.686c4.469-4.191,11.817-12.086,13.405-19.924
	c0.627-3.111,0.559-7.671,0.474-13.443c-0.211-14.07-0.527-35.332,9.321-50.179l0.131-0.208c4.937-8.338,9.979-16.524,14.855-24.443
	c11.757-19.095,22.864-37.129,31.652-55.69c22.807-49.866,20.118-99.604-7.787-143.854c-11.823-18.578-28.875-34.342-49.312-45.586
	C196.67,7.741,175.129,1.631,152.008,0.262l0.007-0.217C151.23,0.021,150.45,0.014,149.669,0h-10.667
	C138.212,0.013,137.423,0.021,136.629,0.044z M167.529,454.649c0,4.622-3.76,8.383-8.383,8.383h-28.195
	c-4.623,0-8.384-3.761-8.384-8.383v-0.528c0-4.624,3.761-8.387,8.384-8.387h28.195c4.623,0,8.383,3.763,8.383,8.387V454.649z
	 M195.729,428.741c0,3.935-3.199,7.133-7.132,7.133h-88c-3.933,0-7.133-3.198-7.133-7.133v-0.477c0-3.933,3.2-7.133,7.133-7.133h88
	c3.933,0,7.132,3.2,7.132,7.133V428.741z M195.729,404.367c0,3.934-3.199,7.132-7.132,7.132h-88c-3.933,0-7.133-3.198-7.133-7.132
	v-0.478c0-3.933,3.2-7.132,7.133-7.132h88c3.933,0,7.132,3.199,7.132,7.132V404.367z M195.729,379.992
	c0,3.931-3.199,7.128-7.132,7.128h-88c-3.933,0-7.133-3.197-7.133-7.128v-0.481c0-3.931,3.2-7.128,7.133-7.128h88
	c3.933,0,7.132,3.197,7.132,7.128V379.992z M257.406,69.234c26.076,41.353,28.554,87.933,7.191,134.644
	c-8.535,18.025-19.507,35.842-31.122,54.705c-4.878,7.92-9.921,16.109-14.881,24.482c-11.424,17.318-11.082,40.312-10.855,55.538
	c0.074,4.989,0.139,9.297-0.284,11.392c-0.927,4.575-6.246,10.769-10.659,14.911c-2.426-1.366-5.222-2.146-8.198-2.146h-88
	c-3.113,0-6.032,0.854-8.532,2.34c-3.931-3.674-9.865-10.098-10.876-15.102c-0.423-2.098-0.358-6.405-0.285-11.395
	c0.227-15.227,0.569-38.221-10.856-55.538c-4.96-8.375-10.004-16.567-14.883-24.489c-11.614-18.86-22.584-36.675-31.093-54.64
	c-21.389-46.77-18.911-93.349,7.154-134.685C49.501,40.532,88.517,10.508,144.32,9.612C200.113,10.512,239.14,40.533,257.406,69.234
	z"/>
</svg>
