<?xml version="1.0" encoding="utf-8"?>
<svg version="1.1"
	 xmlns="http://www.w3.org/2000/svg" xmlns:xlink="http://www.w3.org/1999/xlink" xmlns:a="http://ns.adobe.com/AdobeSVGViewerExtensions/3.0/"
	 x="0px" y="0px" width="800px" height="600px" viewBox="-268 -143.006 800 600"
	 style="enable-background:new -268 -143.006 800 600;" xml:space="preserve">
<defs>
</defs>
<path style="fill:none;" d="M103.617,16.387h55.992c2.093,0,3.795-1.701,3.795-3.791c0-2.128-1.667-3.796-3.795-3.796h-55.992
	c-2.126,0-3.792,1.667-3.792,3.796C99.826,14.721,101.491,16.387,103.617,16.387z"/>
<path style="fill:none;" d="M250.14,274.666L156.533,124.9V25.187H106.72v99.717L12.932,274.94
	c-0.369,0.511-9.134,12.897-0.098,23.071c6.841,6.361,9.743,6.996,18.043,6.748l0.133-0.002l3.081,0.004
	c53.569,0.06,81.604-0.012,96.049-0.09v-0.019c0.477,0.004,0.974,0.007,1.488,0.01c0.515-0.003,1.011-0.006,1.487-0.01v0.018
	c14.446,0.079,42.481,0.15,96.047,0.091l3.149-0.004l0.065,0.002c8.304,0.248,11.208-0.391,18.041-6.748
	c9.04-10.175,0.275-22.562-0.104-23.086L250.14,274.666z M241.832,295.494c-5.742,3.446-10.402,3.301-10.402,3.301l-98.848,0.148
	l-102.699-0.148c0,0-2.617,0.09-6.352-1.324c-1.242-0.473-2.613-1.116-4.051-1.977c-0.937-0.562-1.691-1.234-2.3-1.949
	c-0.606-0.719-1.063-1.496-1.399-2.301c-0.336-0.804-0.547-1.625-0.676-2.449c-0.125-0.824-0.171-1.647-0.148-2.426
	c0.09-3.109,1.098-5.648,1.098-5.648l0.027-0.051l0.023-0.027l48.5-75.797l0.278-0.426l0.347,0.348
	c5.278,5.309,18.832,11.07,39.528,3.902c4.187-1.746,8.418-3.168,13.472-9.527l0.028,0.027l0.047-0.051
	c4.859,3.699,10.183,6.844,16.078,6.949c5.895,0.105,12.422-2.789,19.773-11.398l0.273-0.324l0.301,0.273
	c7.664,6.656,14.641,8.406,20.75,7.449s11.379-4.656,15.5-9.023l0.352-0.375l0.273,0.449l53.602,87.523l0.023,0.027l0.027,0.051
	c0,0,1.008,2.539,1.098,5.648C246.445,289.479,245.582,293.244,241.832,295.494z"/>
<path d="M165.334,122.376V23.81c4.075-2.087,6.871-6.33,6.871-11.214C172.205,5.65,166.555,0,159.609,0h-55.992
	c-6.943,0-12.591,5.65-12.591,12.596c0,4.894,2.806,9.144,6.894,11.227v98.558L5.739,269.869c-2.59,3.581-5.501,9.827-5.739,16.778
	v1.871c0.191,5.147,1.943,10.576,6.429,15.531l0.259,0.263c8.096,7.561,12.983,9.285,21.86,9.285c0.806,0,1.646-0.014,2.522-0.039
	l3.011,0.003c55.424,0.062,83.54-0.017,97.548-0.099c14.008,0.082,42.121,0.161,97.544,0.099l3.017-0.003
	c10.544,0.296,15.555-1.005,24.377-9.247l0.258-0.262c11.188-12.359,5.4-27.67,0.695-34.181L165.334,122.376z M103.617,8.8h55.992
	c2.128,0,3.795,1.667,3.795,3.796c0,2.09-1.702,3.791-3.795,3.791h-55.992c-2.126,0-3.792-1.666-3.792-3.791
	C99.826,10.467,101.491,8.8,103.617,8.8z M250.419,298.011c-6.833,6.357-9.737,6.996-18.041,6.748l-0.065-0.002l-3.149,0.004
	c-53.565,0.06-81.601-0.012-96.047-0.091v-0.018c-0.477,0.004-0.973,0.007-1.487,0.01c-0.515-0.003-1.011-0.006-1.488-0.01v0.019
	c-14.445,0.078-42.48,0.149-96.049,0.09l-3.081-0.004l-0.133,0.002c-8.301,0.248-11.202-0.387-18.043-6.748
	c-9.037-10.174-0.271-22.561,0.098-23.071l93.788-150.037V25.187h49.813V124.9l93.606,149.765l0.176,0.26
	C250.694,275.45,259.459,287.836,250.419,298.011z"/>
<path d="M245.258,280.72l-0.027-0.051l-0.023-0.027l-53.602-87.523l-0.273-0.449l-0.352,0.375c-4.121,4.367-9.391,8.066-15.5,9.023
	s-13.086-0.793-20.75-7.449l-0.301-0.273l-0.273,0.324c-7.352,8.609-13.879,11.504-19.773,11.398
	c-5.895-0.105-11.219-3.25-16.078-6.949l-0.047,0.051l-0.028-0.027c-5.054,6.359-9.285,7.781-13.472,9.527
	c-20.696,7.168-34.25,1.406-39.528-3.902l-0.347-0.348l-0.278,0.426l-48.5,75.797l-0.023,0.027l-0.027,0.051
	c0,0-1.008,2.539-1.098,5.648c-0.023,0.778,0.023,1.602,0.148,2.426c0.129,0.824,0.34,1.646,0.676,2.449
	c0.336,0.805,0.793,1.582,1.399,2.301c0.609,0.715,1.363,1.387,2.3,1.949c1.438,0.86,2.809,1.504,4.051,1.977
	c3.735,1.414,6.352,1.324,6.352,1.324l102.699,0.148l98.848-0.148c0,0,4.66,0.146,10.402-3.301c3.75-2.25,4.613-6.015,4.523-9.125
	C246.266,283.259,245.258,280.72,245.258,280.72z"/>
</svg>
