<?xml version="1.0" encoding="utf-8"?>
<svg version="1.1"
	 xmlns="http://www.w3.org/2000/svg" xmlns:xlink="http://www.w3.org/1999/xlink" xmlns:a="http://ns.adobe.com/AdobeSVGViewerExtensions/3.0/"
	 x="0px" y="0px" width="800px" height="600px" viewBox="-143 -99 800 600" style="enable-background:new -143 -99 800 600;"
	 xml:space="preserve">
<defs>
</defs>
<path d="M16.074,0C7.168,0,0,7.168,0,16.074v301.574c0,8.91,7.168,16.078,16.074,16.078h480.977c8.906,0,16.098-7.168,16.098-16.078
	V16.074C513.148,7.168,505.957,0,497.051,0H16.074z M23.852,27.5h464.796v261.773H23.852V27.5z M256.25,300.273
	c5.59,0,10.125,4.535,10.125,10.125s-4.535,10.125-10.125,10.125s-10.125-4.535-10.125-10.125S250.66,300.273,256.25,300.273
	L256.25,300.273z M189.625,339.602l-3.023,32.922c-3.637,15.121-8.282,20.863-13.727,29.602l164.648-0.301
	c-5.113-8.711-10.797-14.047-13.699-31.348l-2.875-30.875H189.625z"/>
</svg>
