<?xml version="1.0" encoding="utf-8"?>
<svg version="1.1"
	 xmlns="http://www.w3.org/2000/svg" xmlns:xlink="http://www.w3.org/1999/xlink" xmlns:a="http://ns.adobe.com/AdobeSVGViewerExtensions/3.0/"
	 x="0px" y="0px" width="640px" height="400px" viewBox="-0.12 0 640 400" style="enable-background:new -0.12 0 640 400;"
	 xml:space="preserve">
<defs>
</defs>
<rect x="599.88" y="360" width="40" height="40"/>
<rect x="559.88" y="360" style="fill:#051002;" width="40" height="40"/>
<rect x="519.88" y="360" style="fill:#011C00;" width="40" height="40"/>
<rect x="479.88" y="360" style="fill:#013527;" width="40" height="40"/>
<rect x="439.88" y="360" style="fill:#155650;" width="40" height="40"/>
<rect x="399.88" y="360" style="fill:#436B6A;" width="40" height="40"/>
<rect x="359.88" y="360" style="fill:#487173;" width="40" height="40"/>
<rect x="319.88" y="360" style="fill:#73868A;" width="40" height="40"/>
<rect x="279.88" y="360" style="fill:#9B93A0;" width="40" height="40"/>
<rect x="239.88" y="360" style="fill:#BB99B4;" width="40" height="40"/>
<rect x="199.88" y="360" style="fill:#D2A0BB;" width="40" height="40"/>
<rect x="159.88" y="360" style="fill:#E68BAA;" width="40" height="40"/>
<rect x="119.88" y="360" style="fill:#F17194;" width="40" height="40"/>
<rect x="79.88" y="360" style="fill:#EE507D;" width="40" height="40"/>
<rect x="39.88" y="360" style="fill:#EC3566;" width="40" height="40"/>
<rect y="360" style="fill:#EF1E57;" width="39.88" height="40"/>
<rect x="599.88" y="320" style="fill:#051002;" width="40" height="40"/>
<rect x="559.88" y="320" style="fill:#011C00;" width="40" height="40"/>
<rect x="519.88" y="320" style="fill:#013527;" width="40" height="40"/>
<rect x="479.88" y="320" style="fill:#155650;" width="40" height="40"/>
<rect x="439.88" y="320" style="fill:#436B6A;" width="40" height="40"/>
<rect x="399.88" y="320" style="fill:#487173;" width="40" height="40"/>
<rect x="359.88" y="320" style="fill:#73868A;" width="40" height="40"/>
<rect x="319.88" y="320" style="fill:#9B93A0;" width="40" height="40"/>
<rect x="279.88" y="320" style="fill:#BB99B4;" width="40" height="40"/>
<rect x="239.88" y="320" style="fill:#D2A0BB;" width="40" height="40"/>
<rect x="199.88" y="320" style="fill:#E68BAA;" width="40" height="40"/>
<rect x="159.88" y="320" style="fill:#F17194;" width="40" height="40"/>
<rect x="119.88" y="320" style="fill:#EE507D;" width="40" height="40"/>
<rect x="79.88" y="320" style="fill:#EC3566;" width="40" height="40"/>
<rect x="39.88" y="320" style="fill:#EF1E57;" width="40" height="40"/>
<rect y="320" style="fill:#EF564B;" width="39.88" height="40"/>
<rect x="599.88" y="280" style="fill:#011C00;" width="40" height="40"/>
<rect x="559.88" y="280" style="fill:#013527;" width="40" height="40"/>
<rect x="519.88" y="280" style="fill:#155650;" width="40" height="40"/>
<rect x="479.88" y="280" style="fill:#436B6A;" width="40" height="40"/>
<rect x="439.88" y="280" style="fill:#487173;" width="40" height="40"/>
<rect x="399.88" y="280" style="fill:#73868A;" width="40" height="40"/>
<rect x="359.88" y="280" style="fill:#9B93A0;" width="40" height="40"/>
<rect x="319.88" y="280" style="fill:#BB99B4;" width="40" height="40"/>
<rect x="279.88" y="280" style="fill:#D2A0BB;" width="40" height="40"/>
<rect x="239.88" y="280" style="fill:#E68BAA;" width="40" height="40"/>
<rect x="199.88" y="280" style="fill:#F17194;" width="40" height="40"/>
<rect x="159.88" y="280" style="fill:#EE507D;" width="40" height="40"/>
<rect x="119.88" y="280" style="fill:#EC3566;" width="40" height="40"/>
<rect x="79.88" y="280" style="fill:#EF1E57;" width="40" height="40"/>
<rect x="39.88" y="280" style="fill:#EF564B;" width="40" height="40"/>
<rect y="280" style="fill:#F5743A;" width="39.88" height="40"/>
<rect x="599.88" y="240" style="fill:#013527;" width="40" height="40"/>
<rect x="559.88" y="240" style="fill:#155650;" width="40" height="40"/>
<rect x="519.88" y="240" style="fill:#436B6A;" width="40" height="40"/>
<rect x="479.88" y="240" style="fill:#487173;" width="40" height="40"/>
<rect x="439.88" y="240" style="fill:#73868A;" width="40" height="40"/>
<rect x="399.88" y="240" style="fill:#9B93A0;" width="40" height="40"/>
<rect x="359.88" y="240" style="fill:#BB99B4;" width="40" height="40"/>
<rect x="319.88" y="240" style="fill:#D2A0BB;" width="40" height="40"/>
<rect x="279.88" y="240" style="fill:#E68BAA;" width="40" height="40"/>
<rect x="239.88" y="240" style="fill:#F17194;" width="40" height="40"/>
<rect x="199.88" y="240" style="fill:#EE507D;" width="40" height="40"/>
<rect x="159.88" y="240" style="fill:#EC3566;" width="40" height="40"/>
<rect x="119.88" y="240" style="fill:#EF1E57;" width="40" height="40"/>
<rect x="79.88" y="240" style="fill:#EF564B;" width="40" height="40"/>
<rect x="39.88" y="240" style="fill:#F5743A;" width="40" height="40"/>
<rect y="240" style="fill:#F68F2B;" width="39.88" height="40"/>
<rect x="599.88" y="200" style="fill:#155650;" width="40" height="40"/>
<rect x="559.88" y="200" style="fill:#436B6A;" width="40" height="40"/>
<rect x="519.88" y="200" style="fill:#487173;" width="40" height="40"/>
<rect x="479.88" y="200" style="fill:#73868A;" width="40" height="40"/>
<rect x="439.88" y="200" style="fill:#9B93A0;" width="40" height="40"/>
<rect x="399.88" y="200" style="fill:#BB99B4;" width="40" height="40"/>
<rect x="359.88" y="200" style="fill:#D2A0BB;" width="40" height="40"/>
<rect x="319.88" y="200" style="fill:#E68BAA;" width="40" height="40"/>
<rect x="279.88" y="200" style="fill:#F17194;" width="40" height="40"/>
<rect x="239.88" y="200" style="fill:#EE507D;" width="40" height="40"/>
<rect x="199.88" y="200" style="fill:#EC3566;" width="40" height="40"/>
<rect x="159.88" y="200" style="fill:#EF1E57;" width="40" height="40"/>
<rect x="119.88" y="200" style="fill:#EF564B;" width="40" height="40"/>
<rect x="79.88" y="200" style="fill:#F5743A;" width="40" height="40"/>
<rect x="39.88" y="200" style="fill:#F68F2B;" width="40" height="40"/>
<rect y="200" style="fill:#FDB111;" width="39.88" height="40"/>
<rect x="599.88" y="160" style="fill:#436B6A;" width="40" height="40"/>
<rect x="559.88" y="160" style="fill:#487173;" width="40" height="40"/>
<rect x="519.88" y="160" style="fill:#73868A;" width="40" height="40"/>
<rect x="479.88" y="160" style="fill:#9B93A0;" width="40" height="40"/>
<rect x="439.88" y="160" style="fill:#BB99B4;" width="40" height="40"/>
<rect x="399.88" y="160" style="fill:#D2A0BB;" width="40" height="40"/>
<rect x="359.88" y="160" style="fill:#E68BAA;" width="40" height="40"/>
<rect x="319.88" y="160" style="fill:#F17194;" width="40" height="40"/>
<rect x="279.88" y="160" style="fill:#EE507D;" width="40" height="40"/>
<rect x="239.88" y="160" style="fill:#EC3566;" width="40" height="40"/>
<rect x="199.88" y="160" style="fill:#EF1E57;" width="40" height="40"/>
<rect x="159.88" y="160" style="fill:#EF564B;" width="40" height="40"/>
<rect x="119.88" y="160" style="fill:#F5743A;" width="40" height="40"/>
<rect x="79.88" y="160" style="fill:#F68F2B;" width="40" height="40"/>
<rect x="39.88" y="160" style="fill:#FDB111;" width="40" height="40"/>
<rect y="160" style="fill:#FFC64A;" width="39.88" height="40"/>
<rect x="599.88" y="120" style="fill:#487173;" width="40" height="40"/>
<rect x="559.88" y="120" style="fill:#73868A;" width="40" height="40"/>
<rect x="519.88" y="120" style="fill:#9B93A0;" width="40" height="40"/>
<rect x="479.88" y="120" style="fill:#BB99B4;" width="40" height="40"/>
<rect x="439.88" y="120" style="fill:#D2A0BB;" width="40" height="40"/>
<rect x="399.88" y="120" style="fill:#E68BAA;" width="40" height="40"/>
<rect x="359.88" y="120" style="fill:#F17194;" width="40" height="40"/>
<rect x="319.88" y="120" style="fill:#EE507D;" width="40" height="40"/>
<rect x="279.88" y="120" style="fill:#EC3566;" width="40" height="40"/>
<rect x="239.88" y="120" style="fill:#EF1E57;" width="40" height="40"/>
<rect x="199.88" y="120" style="fill:#EF564B;" width="40" height="40"/>
<rect x="159.88" y="120" style="fill:#F5743A;" width="40" height="40"/>
<rect x="119.88" y="120" style="fill:#F68F2B;" width="40" height="40"/>
<rect x="79.88" y="120" style="fill:#FDB111;" width="40" height="40"/>
<rect x="39.88" y="120" style="fill:#FFC64A;" width="40" height="40"/>
<rect y="120" style="fill:#F9DB6D;" width="39.88" height="40"/>
<rect x="599.88" y="80" style="fill:#73868A;" width="40" height="40"/>
<rect x="559.88" y="80" style="fill:#9B93A0;" width="40" height="40"/>
<rect x="519.88" y="80" style="fill:#BB99B4;" width="40" height="40"/>
<rect x="479.88" y="80" style="fill:#D2A0BB;" width="40" height="40"/>
<rect x="439.88" y="80" style="fill:#E68BAA;" width="40" height="40"/>
<rect x="399.88" y="80" style="fill:#F17194;" width="40" height="40"/>
<rect x="359.88" y="80" style="fill:#EE507D;" width="40" height="40"/>
<rect x="319.88" y="80" style="fill:#EC3566;" width="40" height="40"/>
<rect x="279.88" y="80" style="fill:#EF1E57;" width="40" height="40"/>
<rect x="239.88" y="80" style="fill:#EF564B;" width="40" height="40"/>
<rect x="199.88" y="80" style="fill:#F5743A;" width="40" height="40"/>
<rect x="159.88" y="80" style="fill:#F68F2B;" width="40" height="40"/>
<rect x="119.88" y="80" style="fill:#FDB111;" width="40" height="40"/>
<rect x="79.88" y="80" style="fill:#FFC64A;" width="40" height="40"/>
<rect x="39.88" y="80" style="fill:#F9DB6D;" width="40" height="40"/>
<rect y="80" style="fill:#FCEA96;" width="39.88" height="40"/>
<rect x="599.88" y="40" style="fill:#9B93A0;" width="40" height="40"/>
<rect x="559.88" y="40" style="fill:#BB99B4;" width="40" height="40"/>
<rect x="519.88" y="40" style="fill:#D2A0BB;" width="40" height="40"/>
<rect x="479.88" y="40" style="fill:#E68BAA;" width="40" height="40"/>
<rect x="439.88" y="40" style="fill:#F17194;" width="40" height="40"/>
<rect x="399.88" y="40" style="fill:#EE507D;" width="40" height="40"/>
<rect x="359.88" y="40" style="fill:#EC3566;" width="40" height="40"/>
<rect x="319.88" y="40" style="fill:#EF1E57;" width="40" height="40"/>
<rect x="279.88" y="40" style="fill:#EF564B;" width="40" height="40"/>
<rect x="239.88" y="40" style="fill:#F5743A;" width="40" height="40"/>
<rect x="199.88" y="40" style="fill:#F68F2B;" width="40" height="40"/>
<rect x="159.88" y="40" style="fill:#FDB111;" width="40" height="40"/>
<rect x="119.88" y="40" style="fill:#FFC64A;" width="40" height="40"/>
<rect x="79.88" y="40" style="fill:#F9DB6D;" width="40" height="40"/>
<rect x="39.88" y="40" style="fill:#FCEA96;" width="40" height="40"/>
<rect y="40" style="fill:#FEFDDB;" width="39.88" height="40"/>
<rect x="599.88" style="fill:#BB99B4;" width="40" height="40"/>
<rect x="559.88" style="fill:#D2A0BB;" width="40" height="40"/>
<rect x="519.88" style="fill:#E68BAA;" width="40" height="40"/>
<rect x="479.88" style="fill:#F17194;" width="40" height="40"/>
<rect x="439.88" style="fill:#EE507D;" width="40" height="40"/>
<rect x="399.88" style="fill:#EC3566;" width="40" height="40"/>
<rect x="359.88" style="fill:#EF1E57;" width="40" height="40"/>
<rect x="319.88" style="fill:#EF564B;" width="40" height="40"/>
<rect x="279.88" style="fill:#F5743A;" width="40" height="40"/>
<rect x="239.88" style="fill:#F68F2B;" width="40" height="40"/>
<rect x="199.88" style="fill:#FDB111;" width="40" height="40"/>
<rect x="159.88" style="fill:#FFC64A;" width="40" height="40"/>
<rect x="119.88" style="fill:#F9DB6D;" width="40" height="40"/>
<rect x="79.88" style="fill:#FCEA96;" width="40" height="40"/>
<rect x="39.88" style="fill:#FCFDDE;" width="40" height="40"/>
<rect style="fill:#FFFDF1;" width="39.88" height="40"/>
</svg>
