<?xml version="1.0" encoding="utf-8"?>
<svg version="1.1"
	 xmlns="http://www.w3.org/2000/svg" xmlns:xlink="http://www.w3.org/1999/xlink" xmlns:a="http://ns.adobe.com/AdobeSVGViewerExtensions/3.0/"
	 x="0px" y="0px" width="261px" height="183px" viewBox="32.506 22.5 261 183" style="enable-background:new 32.506 22.5 261 183;"
	 xml:space="preserve">
<defs>
</defs>
<path style="fill:none;" d="M53.18,152.348c1,5.854,5.309,9.539,10.426,13.569c9.43,7.431,31.43,12.86,31.43,12.86l0.285-15.715
	c-13.141-5.431-42.43-19-42.43-19S52.457,148.12,53.18,152.348z"/>
<rect x="244.211" y="22.5" style="fill:none;" width="18.465" height="18.465"/>
<path style="fill:none;" d="M181.18,185.348c0,0,30-1.86,39.855-3.431c9.855-1.569,11.855-6.715,12.43-9.569
	c0.57-2.86,0.57-10.86,0.57-10.86l-53.285,9.43L181.18,185.348z"/>
<path style="fill:none;" d="M286.726,114.82c-1.602-2.757-3.47-5.459-5.585-8.107c-2.775-3.474-5.97-6.854-9.527-10.143
	c-0.078-0.072-0.158-0.142-0.236-0.214c-2.648-2.424-5.58-4.731-8.701-6.92c-5.72-4.012-12.07-7.627-18.465-10.833v17.752h-18.465
	v-18.46h18.465V59.43h-18.465V40.965v0h-18.461v0V59.43H188.82V40.965V27.205c-6.289,1.521-11.307,2.608-18.464,4.503
	c-4.826,1.278-10.639,2.93-18.465,5.328c-3.687,1.13-7.822,2.426-12.517,3.929c-0.768,0.246-1.538,0.493-2.335,0.75
	c-1.147,0.369-2.357,0.782-3.613,1.229c-5.481,1.949-11.902,4.586-18.465,7.486c-6.261,2.767-12.648,5.771-18.465,8.648
	c-0.239,0.118-0.472,0.235-0.709,0.353c-7.396,3.674-13.799,7.107-17.752,9.529c-0.143,0.087-0.297,0.179-0.433,0.264
	c-4.023,2.501-8.687,5.273-13.48,8.672c-1.51,1.071-3.032,2.203-4.552,3.411c-5.089,4.042-10.144,8.917-14.574,15.05
	c-1.362,1.887-2.664,3.895-3.89,6.032c-1.36,2.372-2.63,4.899-3.778,7.612c-0.658,1.553-1.244,3.166-1.768,4.82
	c-1.833,5.785-2.845,12.111-3.025,18.465c-0.179,6.3,0.456,12.623,1.929,18.465c1.427,5.658,3.639,10.86,6.642,15.152
	c0.259,0.371,0.521,0.74,0.792,1.098c0.572,0.753,1.124,1.489,1.672,2.215c3.639,4.812,7.18,9.133,16,14.568
	c0.232,0.144,0.448,0.283,0.688,0.428c1.903,1.148,3.972,2.312,6.207,3.469c3.454,1.788,7.31,3.562,11.57,5.251
	c5.475,2.17,11.621,4.198,18.461,5.932c5.673,1.438,11.83,2.667,18.465,3.609c5.784,0.821,11.936,1.421,18.465,1.742
	c1.937,0.096,3.899,0.171,5.902,0.216c4.221,0.094,8.41,0.135,12.563,0.128c6.253-0.01,12.416-0.139,18.465-0.383
	c6.293-0.255,12.456-0.641,18.464-1.159c6.343-0.548,12.518-1.237,18.465-2.092c6.428-0.922,12.592-2.033,18.461-3.328
	c6.555-1.446,12.738-3.124,18.465-5.055c4.367-1.474,8.463-3.096,12.276-4.861c2.154-0.997,4.227-2.036,6.188-3.13
	c7.625-4.247,13.761-9.223,18.078-14.979c0.089-0.119,0.168-0.236,0.256-0.355c0.045-0.061,0.086-0.12,0.131-0.181
	c4.644-6.288,7.86-12.382,9.811-18.284c2.107-6.377,2.743-12.531,2.094-18.465C292.345,126.876,290.154,120.723,286.726,114.82z
	 M207.211,59.5h18.465v18.465h-18.465V59.5z M170.645,78.268h18.465v18.465h-18.465V78.268z M151.979,40.965h18.465V59.43h-18.465
	V40.965z M251.035,160.777c-0.57,17.425-13.43,23.71-13.43,23.71c-2.277,1.395-12.445,5.809-47.426,10
	c-12.848,1.543-40.289,2.29-74.289-1.425c-18.398-2.013-39.523-8.806-52.543-16.965c-10.086-6.324-13.938-13.47-16.551-19.845
	c-7.141-17.43,2.808-39.19,2.808-39.19s34,10.569,56.575,13.715c22.57,3.14,42,2.285,64.285,0.57
	c22.285-1.716,68.855-9.716,68.855-9.716C245.605,127.917,251.605,143.348,251.035,160.777z"/>
<path d="M0,0v240h342V0H0z M244.211,22.5h18.465v18.465h-18.465V22.5z M290.951,151.75c-1.95,5.902-5.167,11.996-9.811,18.284
	c-0.045,0.061-0.086,0.12-0.131,0.181c-0.088,0.119-0.167,0.236-0.256,0.355c-4.317,5.757-10.453,10.732-18.078,14.979
	c-1.962,1.094-4.034,2.133-6.188,3.13c-3.813,1.766-7.909,3.388-12.276,4.861c-5.727,1.931-11.91,3.608-18.465,5.055
	c-5.869,1.295-12.033,2.406-18.461,3.328c-5.947,0.854-12.122,1.544-18.465,2.092c-6.008,0.519-12.171,0.904-18.464,1.159
	c-6.05,0.244-12.212,0.373-18.465,0.383c-4.153,0.007-8.342-0.034-12.563-0.128c-2.003-0.045-3.966-0.12-5.902-0.216
	c-6.529-0.321-12.681-0.921-18.465-1.742c-6.635-0.942-12.792-2.172-18.465-3.609c-6.84-1.733-12.986-3.762-18.461-5.932
	c-4.261-1.689-8.117-3.463-11.57-5.251c-2.235-1.157-4.304-2.32-6.207-3.469c-0.24-0.145-0.456-0.284-0.688-0.428
	c-8.82-5.436-12.361-9.757-16-14.568c-0.548-0.726-1.1-1.462-1.672-2.215c-0.271-0.357-0.533-0.727-0.792-1.098
	c-3.003-4.292-5.215-9.494-6.642-15.152c-1.473-5.842-2.108-12.165-1.929-18.465c0.18-6.354,1.192-12.68,3.025-18.465
	c0.524-1.654,1.11-3.267,1.768-4.82c1.148-2.713,2.417-5.24,3.778-7.612c1.226-2.138,2.528-4.146,3.89-6.032
	c4.43-6.134,9.484-11.008,14.574-15.05c1.52-1.208,3.042-2.34,4.552-3.411c4.793-3.399,9.457-6.17,13.48-8.672
	c0.136-0.085,0.29-0.177,0.433-0.264c3.953-2.422,10.355-5.854,17.752-9.529c0.237-0.118,0.47-0.234,0.709-0.353
	c5.817-2.877,12.204-5.881,18.465-8.648c6.562-2.9,12.984-5.537,18.465-7.486c1.256-0.447,2.466-0.86,3.613-1.229
	c0.798-0.257,1.568-0.504,2.335-0.75c4.695-1.503,8.83-2.799,12.517-3.929c7.826-2.398,13.639-4.05,18.465-5.328
	c7.157-1.896,12.175-2.982,18.464-4.503v13.761V59.43h18.465V40.965v0h18.461v0V59.43h18.465v18.465h-18.465v18.46h18.465V78.603
	c6.395,3.206,12.745,6.821,18.465,10.833c3.121,2.189,6.053,4.497,8.701,6.92c0.078,0.072,0.158,0.142,0.236,0.214
	c3.558,3.289,6.752,6.669,9.527,10.143c2.115,2.648,3.983,5.351,5.585,8.107c3.429,5.902,5.619,12.056,6.319,18.465
	C293.694,139.219,293.059,145.373,290.951,151.75z"/>
<path d="M170.465,131.348c-22.285,1.715-41.715,2.569-64.285-0.57c-22.574-3.146-56.575-13.715-56.575-13.715
	s-9.949,21.761-2.808,39.19c2.613,6.375,6.465,13.521,16.551,19.845c13.02,8.159,34.145,14.952,52.543,16.965
	c34,3.715,61.441,2.968,74.289,1.425c34.98-4.191,45.148-8.605,47.426-10c0,0,12.859-6.285,13.43-23.71
	c0.57-17.43-5.43-32.86-11.715-39.146C239.32,121.632,192.75,129.632,170.465,131.348z M95.035,178.777c0,0-22-5.43-31.43-12.86
	c-5.117-4.03-9.426-7.715-10.426-13.569c-0.723-4.228-0.289-8.285-0.289-8.285s29.289,13.569,42.43,19L95.035,178.777z
	 M233.465,172.348c-0.574,2.854-2.574,8-12.43,9.569c-9.855,1.57-39.855,3.431-39.855,3.431l-0.43-14.431l53.285-9.43
	C234.035,161.487,234.035,169.487,233.465,172.348z"/>
<rect x="207.211" y="59.5" width="18.465" height="18.465"/>
<rect x="151.979" y="40.965" width="18.465" height="18.465"/>
<rect x="170.645" y="78.268" width="18.465" height="18.465"/>
</svg>
