<?xml version="1.0" encoding="utf-8"?>
<svg version="1.1"
	 xmlns="http://www.w3.org/2000/svg" xmlns:xlink="http://www.w3.org/1999/xlink" xmlns:a="http://ns.adobe.com/AdobeSVGViewerExtensions/3.0/"
	 x="0px" y="0px" width="261px" height="185px" viewBox="-0.007 0 261 185" style="enable-background:new -0.007 0 261 185;"
	 xml:space="preserve">
<defs>
</defs>
<rect x="137.851" y="55.395" style="fill:none;" width="18.464" height="18.46"/>
<polygon style="fill:none;" points="174.779,55.395 193.24,55.395 193.24,47.823 193.24,36.93 174.779,36.93 174.779,40.848 "/>
<rect x="119.385" y="18.465" style="fill:none;" width="18.464" height="18.465"/>
<path style="fill:#013527;" d="M211.705,171.041c4.367-1.474,8.463-3.096,12.276-4.861h-12.276V171.041z"/>
<path style="fill:#155650;" d="M193.24,166.18v9.916c6.555-1.446,12.738-3.124,18.465-5.055v-4.861H193.24z"/>
<path style="fill:#436B6A;" d="M190.382,166.18c-4.005,0.943-9.116,1.969-15.603,3.023v10.221
	c6.428-0.922,12.592-2.033,18.461-3.328v-9.916H190.382z"/>
<path style="fill:#487173;" d="M156.314,171.777v9.738c6.343-0.548,12.518-1.237,18.465-2.092v-10.221
	C169.561,170.052,163.464,170.919,156.314,171.777z"/>
<path style="fill:#73868A;" d="M156.248,171.785c-4.474,0.536-10.722,0.976-18.397,1.164v9.726
	c6.293-0.255,12.456-0.641,18.464-1.159v-9.738C156.292,171.779,156.271,171.782,156.248,171.785z"/>
<path style="fill:#9B93A0;" d="M137.85,172.949c-5.47,0.134-11.664,0.142-18.464-0.035v10.144c6.253-0.01,12.415-0.139,18.464-0.383
	h0.001L137.85,172.949L137.85,172.949z"/>
<path style="fill:#BB99B4;" d="M100.92,172.037v10.677c1.937,0.096,3.899,0.171,5.902,0.216c4.221,0.094,8.41,0.135,12.563,0.128
	v-10.144C113.637,172.765,107.457,172.482,100.92,172.037z"/>
<path style="fill:#D2A0BB;" d="M82.455,170.407v10.564c5.784,0.821,11.936,1.421,18.465,1.742v-10.677
	C95.036,171.636,88.864,171.101,82.455,170.407z"/>
<path style="fill:#E68BAA;" d="M81.963,170.355c-5.833-0.637-11.938-1.756-17.973-3.245v10.252
	c5.673,1.438,11.83,2.667,18.465,3.609v-10.564C82.291,170.39,82.128,170.373,81.963,170.355z"/>
<path style="fill:#F17194;" d="M60.405,166.18H45.529v5.251c5.475,2.17,11.621,4.198,18.461,5.932V167.11
	C62.792,166.814,61.596,166.504,60.405,166.18z"/>
<path style="fill:#EE507D;" d="M33.959,166.18c3.454,1.788,7.31,3.562,11.57,5.251v-5.251H33.959z"/>
<path style="fill:#013527;" d="M230.17,163.05c7.625-4.247,13.761-9.223,18.078-14.979c0.089-0.119,0.168-0.236,0.256-0.355H230.17
	V163.05z"/>
<path style="fill:#155650;" d="M215.315,147.715c-0.977,2.706-2.256,4.966-3.61,6.829v11.636h12.276
	c2.154-0.997,4.227-2.036,6.188-3.13v-15.335H215.315z"/>
<path style="fill:#436B6A;" d="M203.678,161.785c-1.083,0.661-3.961,2.008-10.438,3.689v0.705h18.465v-11.636
	C207.97,159.68,203.678,161.785,203.678,161.785z"/>
<path style="fill:#436B6A;" d="M193.24,157.399c4.647-2.244,5.869-5.632,6.293-7.755c0.102-0.505,0.185-1.176,0.253-1.93h-6.546
	V157.399z"/>
<path style="fill:#487173;" d="M190.382,166.18h2.858v-0.705C192.357,165.703,191.404,165.938,190.382,166.18z"/>
<path style="fill:#487173;" d="M174.779,147.715v12.877c4.98-0.449,9.49-0.925,12.328-1.377c2.526-0.402,4.53-1.042,6.133-1.815
	v-9.685H174.779z"/>
<path style="fill:#73868A;" d="M156.314,147.715v14.325c5.355-0.375,12.271-0.891,18.465-1.448v-12.877H156.314z"/>
<path style="fill:#9B93A0;" d="M149.647,147.715l-2.825,0.5l0.426,14.43c0,0,3.77-0.234,9.066-0.604v-14.325H149.647z"/>
<path style="fill:#EE507D;" d="M61.259,147.715H45.529v3.501c8.103,3.009,15.578,4.854,15.578,4.854L61.259,147.715z"/>
<path style="fill:#EE507D;" d="M45.529,166.18h14.876c-5.138-1.399-10.161-3.061-14.876-4.906V166.18z"/>
<path style="fill:#EC3566;" d="M37.203,147.715c2.664,1.288,5.531,2.463,8.327,3.501v-3.501H37.203z"/>
<path style="fill:#EC3566;" d="M45.529,161.273c-6.044-2.366-11.575-5.036-16.109-7.879c-0.832-0.521-1.606-1.05-2.356-1.581v10.47
	c0.232,0.144,0.448,0.283,0.688,0.428c1.903,1.148,3.972,2.312,6.207,3.469h11.57V161.273z"/>
<path style="fill:#EF1E57;" d="M22.099,147.715H11.064c3.639,4.812,7.18,9.133,16,14.568v-10.47
	C25.172,150.472,23.531,149.102,22.099,147.715z"/>
<path style="fill:#013527;" d="M248.635,147.534c4.644-6.288,7.86-12.382,9.811-18.284h-9.811V147.534z"/>
<path style="fill:#155650;" d="M230.17,129.25v18.465h18.334c0.045-0.061,0.086-0.12,0.131-0.181V129.25H230.17z"/>
<path style="fill:#436B6A;" d="M217.107,138.07c-0.122,3.704-0.802,6.9-1.792,9.645h14.854V129.25h-13.336
	C217.097,132.107,217.206,135.056,217.107,138.07z"/>
<path style="fill:#487173;" d="M193.24,140v7.715h6.546c0.32-3.512,0.321-8.93,0.321-8.93L193.24,140z"/>
<polygon style="fill:#73868A;" points="193.24,147.715 193.24,140 174.779,143.268 174.779,147.715 "/>
<polygon style="fill:#9B93A0;" points="174.779,147.715 174.779,143.268 156.314,146.535 156.314,147.715 "/>
<polygon style="fill:#BB99B4;" points="156.314,146.535 149.647,147.715 156.314,147.715 "/>
<path style="fill:#EC3566;" d="M61.259,147.715l0.133-7.359c-4.153-1.715-9.919-4.243-15.863-6.899v14.259H61.259z"/>
<path style="fill:#EF1E57;" d="M45.529,133.456c-3.134-1.4-6.312-2.835-9.335-4.206h-9.13v11.853
	c0.838,0.702,1.712,1.402,2.614,2.112c2.037,1.605,4.663,3.116,7.524,4.5h8.327V133.456z"/>
<path style="fill:#EF564B;" d="M12.869,133.551c-0.578-1.409-1.033-2.849-1.401-4.301H8.6v15.152
	c0.259,0.371,0.521,0.74,0.792,1.098c0.572,0.753,1.124,1.489,1.672,2.215h11.035C17.212,142.984,14.723,138.074,12.869,133.551z"/>
<path style="fill:#EF564B;" d="M19.188,129.25c0.02,0.132,0.038,0.263,0.061,0.395c0.824,4.824,3.897,8.174,7.816,11.458V129.25
	H19.188z"/>
<path style="fill:#F5743A;" d="M8.599,129.25H1.958c1.427,5.658,3.638,10.859,6.641,15.151c0,0,0,0.001,0.001,0.001L8.599,129.25
	L8.599,129.25z"/>
<path style="fill:#155650;" d="M260.539,110.785h-11.904v18.465h9.811C260.553,122.873,261.188,116.719,260.539,110.785z"/>
<rect x="230.17" y="110.785" style="fill:#436B6A;" width="18.465" height="18.465"/>
<path style="fill:#487173;" d="M212.533,110.785c2.085,5.249,3.669,11.57,4.301,18.465h13.336v-18.465H212.533z"/>
<path style="fill:#EF564B;" d="M36.194,129.25c-3.334-1.513-6.469-2.944-9.13-4.164v4.164H36.194z"/>
<path style="fill:#F5743A;" d="M10.982,110.785H8.6v18.465h2.868C9.881,122.996,10.095,116.477,10.982,110.785z"/>
<path style="fill:#F5743A;" d="M27.064,125.086c-4.833-2.216-8.101-3.73-8.101-3.73s-0.404,3.813,0.225,7.895h7.876V125.086z"/>
<path style="fill:#F68F2B;" d="M8.6,129.25v-18.465H8.599h-8.57c-0.179,6.3,0.456,12.623,1.929,18.465H8.6L8.6,129.25z"/>
<path style="fill:#436B6A;" d="M248.635,110.785h11.904c-0.7-6.409-2.891-12.562-6.319-18.465h-5.585V110.785z"/>
<rect x="230.17" y="92.32" style="fill:#487173;" width="18.465" height="18.465"/>
<path style="fill:#73868A;" d="M212.533,110.785h17.637V92.32h-18.465v16.488C211.989,109.448,212.265,110.108,212.533,110.785z"/>
<path style="fill:#9B93A0;" d="M205.393,98.93c2.236,2.236,4.432,5.648,6.312,9.879V92.32H193.24v8.626
	C200.548,99.762,205.393,98.93,205.393,98.93z"/>
<path style="fill:#BB99B4;" d="M174.779,103.834c6.832-1.026,13.268-2.046,18.461-2.888V92.32h-18.461V103.834z"/>
<path style="fill:#D2A0BB;" d="M156.314,92.32v14.133c6.07-0.799,12.42-1.712,18.465-2.619V92.32H156.314z"/>
<path style="fill:#E68BAA;" d="M137.851,92.32v16.218c5.254-0.442,11.682-1.192,18.464-2.085V92.32H137.851z"/>
<path style="fill:#F17194;" d="M137.85,92.32h-18.464v17.439c5.591-0.275,11.269-0.664,17.148-1.115
	c0.429-0.033,0.87-0.069,1.316-0.106h0.001L137.85,92.32L137.85,92.32z"/>
<path style="fill:#EE507D;" d="M100.92,92.32v17.844c6.146,0.062,12.252-0.099,18.465-0.404V92.32H100.92z"/>
<path style="fill:#EC3566;" d="M82.455,92.32v16.918c6.291,0.575,12.401,0.863,18.465,0.926V92.32H82.455z"/>
<path style="fill:#EF1E57;" d="M63.99,92.32v14.38c2.858,0.537,5.637,1.006,8.258,1.37c3.472,0.483,6.862,0.862,10.207,1.168V92.32
	H63.99z"/>
<path style="fill:#EF564B;" d="M45.529,92.32v10.302c6.082,1.504,12.451,2.949,18.461,4.078V92.32H45.529z"/>
<path style="fill:#F5743A;" d="M45.529,102.622V92.32H27.064v5.387C32.22,99.169,38.685,100.93,45.529,102.622z"/>
<path style="fill:#F68F2B;" d="M15.678,94.355c0,0,4.539,1.41,11.386,3.352V92.32H8.6v18.465h2.382
	C12.437,101.453,15.678,94.355,15.678,94.355z"/>
<path style="fill:#FDB111;" d="M8.6,110.785V92.32H8.599H3.055c-1.833,5.785-2.845,12.111-3.025,18.465H8.6L8.6,110.785z"/>
<path style="fill:#487173;" d="M254.22,92.32c-1.602-2.757-3.47-5.459-5.585-8.107v8.107H254.22z"/>
<path style="fill:#73868A;" d="M230.17,92.32h18.465v-8.107c-2.775-3.474-5.97-6.854-9.527-10.143
	c-0.078-0.072-0.158-0.142-0.236-0.214h-8.701V92.32z"/>
<rect x="211.705" y="73.856" style="fill:#9B93A0;" width="18.465" height="18.464"/>
<path style="fill:#BB99B4;" d="M193.24,92.32h18.465V73.856h18.465v-0.001v-6.919c-5.72-4.012-12.07-7.627-18.465-10.833v17.752
	H193.24v0.001V92.32z"/>
<rect x="174.779" y="73.856" style="fill:#D2A0BB;" width="18.461" height="18.464"/>
<rect x="156.314" y="73.856" style="fill:#E68BAA;" width="18.465" height="18.464"/>
<polygon style="fill:#F17194;" points="137.851,73.855 137.851,73.856 137.851,92.32 156.314,92.32 156.314,73.856 174.779,73.856 
	174.779,73.855 174.779,55.395 156.314,55.395 156.314,73.855 "/>
<polygon style="fill:#EE507D;" points="137.85,92.32 137.851,92.32 137.851,73.856 137.85,73.856 119.385,73.856 119.385,92.32 "/>
<rect x="100.92" y="73.856" style="fill:#EC3566;" width="18.465" height="18.464"/>
<rect x="82.455" y="73.856" style="fill:#EF1E57;" width="18.465" height="18.464"/>
<rect x="63.99" y="73.856" style="fill:#EF564B;" width="18.465" height="18.464"/>
<rect x="45.529" y="73.856" style="fill:#F5743A;" width="18.461" height="18.464"/>
<rect x="27.064" y="73.856" style="fill:#F68F2B;" width="18.465" height="18.464"/>
<path style="fill:#FDB111;" d="M27.064,92.32V73.856H12.49c-1.362,1.887-2.664,3.895-3.89,6.032V92.32H27.064z"/>
<path style="fill:#FFC64A;" d="M8.6,92.32V79.888c0,0,0,0.001-0.001,0.001c-1.36,2.371-2.629,4.898-3.777,7.61
	c-0.658,1.553-1.244,3.166-1.768,4.82H8.6L8.6,92.32z"/>
<path style="fill:#9B93A0;" d="M230.17,73.856h8.701c0,0-0.001,0-0.001-0.001c-2.648-2.424-5.58-4.73-8.7-6.919V73.856
	L230.17,73.856z"/>
<polygon style="fill:#E68BAA;" points="174.779,73.855 174.779,73.856 193.24,73.856 193.24,73.855 193.24,55.395 174.779,55.395 
	"/>
<polygon style="fill:#EC3566;" points="119.385,73.856 137.85,73.856 137.851,73.856 137.851,73.855 137.851,55.395 137.85,55.395 
	119.385,55.395 119.385,73.855 "/>
<polygon style="fill:#EF1E57;" points="100.92,73.855 100.92,73.856 119.385,73.856 119.385,73.855 119.385,55.395 100.92,55.395 
	"/>
<polygon style="fill:#EF564B;" points="100.92,73.855 100.92,55.395 82.455,55.395 82.455,73.855 82.455,73.856 100.92,73.856 "/>
<polygon style="fill:#F5743A;" points="63.99,73.856 82.455,73.856 82.455,73.855 82.455,55.395 63.99,55.395 63.99,73.855 "/>
<polygon style="fill:#F68F2B;" points="63.99,73.855 63.99,55.395 45.529,55.395 45.529,73.855 45.529,73.856 63.99,73.856 "/>
<path style="fill:#FDB111;" d="M27.064,73.856h18.465v-0.001v-18.46H31.616c-1.51,1.071-3.032,2.203-4.552,3.411V73.856
	L27.064,73.856z"/>
<path style="fill:#FFC64A;" d="M27.064,73.855V58.806c-5.089,4.042-10.144,8.916-14.573,15.049c0,0,0,0-0.001,0.001L27.064,73.855
	L27.064,73.855z"/>
<rect x="137.851" y="36.93" style="fill:#EC3566;" width="18.464" height="18.465"/>
<rect x="100.92" y="36.93" style="fill:#EF564B;" width="18.465" height="18.465"/>
<rect x="82.455" y="36.93" style="fill:#F5743A;" width="18.465" height="18.465"/>
<rect x="63.99" y="36.93" style="fill:#F68F2B;" width="18.465" height="18.465"/>
<path style="fill:#FDB111;" d="M63.99,55.395V36.93h-0.709c-7.396,3.674-13.799,7.107-17.752,9.529v8.936H63.99z"/>
<path style="fill:#FFC64A;" d="M45.529,46.459c-0.143,0.087-0.297,0.179-0.433,0.264c-4.023,2.501-8.687,5.273-13.48,8.672h13.913
	V46.459z"/>
<polygon style="fill:#EF1E57;" points="137.85,18.465 137.85,36.93 119.385,36.93 119.385,55.395 137.85,55.395 137.851,55.395 
	137.851,36.93 156.314,36.93 156.314,18.465 137.851,18.465 "/>
<path style="fill:#F5743A;" d="M119.385,36.93V18.465h-12.517c-0.768,0.246-1.538,0.493-2.335,0.75
	c-1.147,0.369-2.357,0.782-3.613,1.229V36.93H119.385z"/>
<path style="fill:#F68F2B;" d="M100.92,36.93V20.444c-5.481,1.949-11.902,4.586-18.465,7.486v9H100.92z"/>
<path style="fill:#FDB111;" d="M82.455,36.93v-9c-6.261,2.767-12.648,5.771-18.465,8.648v0.353H82.455z"/>
<path style="fill:#FFC64A;" d="M63.99,36.578c-0.239,0.118-0.472,0.235-0.709,0.353h0.709V36.578z"/>
<path style="fill:#EF564B;" d="M156.314,18.465V4.705c-6.289,1.521-11.307,2.608-18.464,4.503v9.257H156.314z"/>
<path style="fill:#F5743A;" d="M137.85,18.465L137.85,18.465l0.001-9.257l-0.001,0c-4.826,1.278-10.639,2.929-18.464,5.328v3.929
	H137.85z"/>
<path style="fill:#F68F2B;" d="M119.385,14.536c-3.687,1.13-7.822,2.426-12.517,3.929h12.517V14.536z"/>
<path style="fill:#FFFFFF;" d="M216.834,129.25c-0.632-6.895-2.216-13.216-4.301-18.465c-0.269-0.677-0.544-1.337-0.828-1.977
	c-1.881-4.23-4.076-7.643-6.312-9.879c0,0-4.845,0.832-12.152,2.017c-5.193,0.842-11.629,1.861-18.461,2.888
	c-6.045,0.907-12.395,1.82-18.465,2.619c-6.782,0.893-13.21,1.643-18.464,2.085h-0.001c-0.446,0.037-0.888,0.073-1.316,0.106
	c-5.879,0.451-11.557,0.84-17.148,1.115c-6.213,0.306-12.32,0.467-18.465,0.404c-6.063-0.062-12.174-0.351-18.465-0.926
	c-3.345-0.306-6.735-0.685-10.207-1.168c-2.621-0.364-5.4-0.833-8.258-1.37c-6.01-1.129-12.379-2.574-18.461-4.078
	c-6.845-1.692-13.309-3.453-18.465-4.915c-6.847-1.941-11.386-3.352-11.386-3.352s-3.241,7.098-4.696,16.43
	c-0.888,5.691-1.102,12.211,0.485,18.465c0.368,1.452,0.824,2.892,1.401,4.301c1.854,4.523,4.343,9.434,9.229,14.164
	c1.432,1.387,3.074,2.757,4.965,4.099c0.75,0.531,1.524,1.06,2.356,1.581c4.534,2.843,10.065,5.513,16.109,7.879
	c4.715,1.846,9.738,3.507,14.876,4.906c1.19,0.324,2.386,0.635,3.585,0.931c6.035,1.489,12.14,2.608,17.973,3.245
	c0.165,0.018,0.328,0.034,0.492,0.052c6.409,0.693,12.581,1.229,18.465,1.63c6.537,0.445,12.717,0.728,18.465,0.877
	c6.8,0.177,12.995,0.169,18.464,0.035h0.001c7.676-0.188,13.924-0.628,18.397-1.164c0.022-0.003,0.044-0.006,0.066-0.008
	c7.149-0.858,13.246-1.726,18.465-2.574c6.486-1.055,11.598-2.08,15.603-3.023c1.022-0.241,1.976-0.477,2.858-0.705
	c6.477-1.682,9.354-3.028,10.438-3.689c0,0,4.292-2.105,8.027-7.241c1.354-1.863,2.634-4.123,3.61-6.829
	c0.99-2.744,1.67-5.94,1.792-9.645C217.206,135.056,217.097,132.107,216.834,129.25z M45.529,151.216
	c-2.795-1.038-5.663-2.213-8.327-3.501c-2.862-1.384-5.487-2.895-7.524-4.5c-0.902-0.71-1.776-1.41-2.614-2.112
	c-3.918-3.284-6.992-6.634-7.816-11.458c-0.022-0.132-0.041-0.263-0.061-0.395c-0.628-4.081-0.225-7.895-0.225-7.895
	s3.269,1.515,8.101,3.73c2.662,1.22,5.796,2.651,9.13,4.164c3.023,1.371,6.201,2.806,9.335,4.206
	c5.943,2.656,11.709,5.185,15.863,6.899l-0.133,7.359l-0.152,8.355C61.107,156.07,53.632,154.225,45.529,151.216z M199.533,149.645
	c-0.424,2.123-1.646,5.511-6.293,7.755c-1.603,0.773-3.606,1.413-6.133,1.815c-2.838,0.452-7.348,0.928-12.328,1.377
	c-6.194,0.558-13.109,1.073-18.465,1.448c-5.297,0.37-9.066,0.604-9.066,0.604l-0.426-14.43l2.825-0.5l6.667-1.18l18.465-3.268
	L193.24,140l6.867-1.215c0,0-0.001,5.418-0.321,8.93C199.718,148.469,199.635,149.14,199.533,149.645z"/>
<polygon style="fill:#E68BAA;" points="193.24,55.395 210.28,55.395 211.705,55.395 211.705,36.93 193.24,36.93 193.24,47.823 "/>
<polygon style="fill:#EE507D;" points="174.779,55.395 174.779,40.848 174.779,36.93 166.579,36.93 156.314,36.93 156.314,55.395 
	"/>
<polygon style="fill:#EE507D;" points="193.24,18.465 193.24,18.465 174.779,18.465 174.779,18.465 174.779,36.93 193.24,36.93 "/>
<polygon style="fill:#F17194;" points="230.17,2 230.17,0 211.705,0 211.705,2 211.705,18.465 230.17,18.465 "/>
</svg>
