<?xml version="1.0" encoding="utf-8"?>
<svg version="1.1"
	 xmlns="http://www.w3.org/2000/svg" xmlns:xlink="http://www.w3.org/1999/xlink" xmlns:a="http://ns.adobe.com/AdobeSVGViewerExtensions/3.0/"
	 x="0px" y="0px" width="261px" height="185px" viewBox="-0.007 0 261 185" style="enable-background:new -0.007 0 261 185;"
	 xml:space="preserve">
<defs>
</defs>
<rect x="119.385" y="18.465" style="fill:none;" width="18.464" height="18.465"/>
<polygon style="fill:none;" points="174.779,55.395 193.24,55.395 193.24,47.824 193.24,36.93 174.779,36.93 174.779,40.849 "/>
<rect x="137.849" y="55.395" style="fill:none;" width="18.465" height="18.46"/>
<path style="fill:none;" d="M212.534,110.785c-0.27-0.678-0.544-1.338-0.829-1.979c-1.881-4.229-4.076-7.641-6.312-9.877
	c0,0-4.845,0.832-12.152,2.017c-5.193,0.842-11.629,1.861-18.461,2.888c-6.045,0.907-12.395,1.82-18.465,2.619
	c-6.782,0.893-13.211,1.643-18.465,2.085c-0.446,0.037-0.888,0.073-1.316,0.106c-5.879,0.451-11.556,0.84-17.147,1.115
	c-6.213,0.306-12.32,0.467-18.465,0.404c-6.064-0.062-12.174-0.351-18.465-0.926c-3.345-0.306-6.735-0.685-10.207-1.168
	c-2.621-0.364-5.4-0.833-8.258-1.37c-6.01-1.129-12.379-2.574-18.461-4.078c-6.845-1.692-13.309-3.453-18.465-4.915
	c-6.847-1.941-11.386-3.352-11.386-3.352s-3.241,7.099-4.696,16.43c-0.887,5.692-1.102,12.211,0.485,18.465
	c0.368,1.452,0.824,2.892,1.401,4.301c1.854,4.523,4.343,9.434,9.229,14.164c1.433,1.387,3.074,2.757,4.965,4.098
	c0.75,0.532,1.524,1.061,2.356,1.582c4.534,2.843,10.064,5.512,16.109,7.879c4.715,1.846,9.738,3.507,14.876,4.906
	c1.19,0.324,2.386,0.635,3.584,0.931c6.035,1.489,12.14,2.608,17.973,3.245c0.165,0.018,0.327,0.034,0.492,0.052
	c6.409,0.693,12.581,1.229,18.465,1.63c6.537,0.445,12.717,0.728,18.465,0.877c6.8,0.177,12.994,0.17,18.464,0.035
	c7.676-0.188,13.925-0.627,18.398-1.163c0.022-0.003,0.044-0.006,0.066-0.008c7.149-0.858,13.246-1.726,18.465-2.574
	c6.488-1.055,11.602-2.08,15.607-3.024c1.021-0.24,1.972-0.476,2.854-0.704c6.478-1.682,9.354-3.028,10.438-3.689
	c0,0,4.291-2.105,8.026-7.241c1.355-1.862,2.635-4.123,3.611-6.83c0.99-2.744,1.671-5.94,1.793-9.645
	c0.099-3.015-0.011-5.963-0.273-8.82C216.203,122.355,214.619,116.034,212.534,110.785z M61.258,147.715l-0.151,8.354
	c0,0-7.475-1.846-15.578-4.854c-2.795-1.038-5.662-2.213-8.326-3.5c-2.862-1.384-5.488-2.895-7.525-4.5
	c-0.902-0.71-1.776-1.41-2.614-2.112c-3.918-3.284-6.992-6.634-7.816-11.458c-0.022-0.132-0.041-0.263-0.061-0.395
	c-0.628-4.081-0.224-7.895-0.224-7.895s3.269,1.515,8.101,3.729c2.662,1.221,5.796,2.652,9.131,4.165
	c3.023,1.371,6.201,2.806,9.334,4.206c5.944,2.656,11.709,5.185,15.863,6.898L61.258,147.715z M199.786,147.715
	c-0.068,0.753-0.151,1.424-0.253,1.929c-0.424,2.123-1.645,5.511-6.293,7.755c-1.603,0.773-3.606,1.413-6.133,1.815
	c-2.838,0.452-7.348,0.928-12.328,1.377c-6.194,0.558-13.109,1.073-18.465,1.448c-5.297,0.371-9.066,0.604-9.066,0.604
	l-0.426-14.429l2.825-0.5l6.667-1.18l18.465-3.268L193.24,140l6.867-1.215C200.107,138.785,200.106,144.203,199.786,147.715z"/>
<path d="M174.779,143.268l-18.465,3.268l-6.667,1.18l-2.825,0.5l0.426,14.429c0,0,3.77-0.233,9.066-0.604
	c5.355-0.375,12.271-0.891,18.465-1.448c4.98-0.449,9.49-0.925,12.328-1.377c2.526-0.402,4.53-1.042,6.133-1.815
	c4.648-2.244,5.869-5.632,6.293-7.755c0.102-0.505,0.185-1.176,0.253-1.929c0.32-3.512,0.321-8.93,0.321-8.93L193.24,140
	L174.779,143.268z"/>
<path d="M36.195,129.25c-3.334-1.513-6.469-2.944-9.131-4.165c-4.832-2.215-8.101-3.729-8.101-3.729s-0.404,3.813,0.224,7.895
	c0.021,0.132,0.039,0.263,0.061,0.395c0.824,4.824,3.897,8.174,7.816,11.458c0.838,0.702,1.712,1.402,2.614,2.112
	c2.038,1.605,4.663,3.116,7.525,4.5c2.664,1.287,5.531,2.462,8.326,3.5c8.103,3.009,15.578,4.854,15.578,4.854l0.151-8.354
	l0.134-7.36c-4.153-1.714-9.919-4.242-15.863-6.898C42.396,132.056,39.218,130.621,36.195,129.25z"/>
<path d="M260.54,110.785c-0.701-6.409-2.891-12.563-6.32-18.466c-1.601-2.756-3.469-5.458-5.584-8.105
	c-2.776-3.474-5.97-6.855-9.528-10.144c-0.078-0.072-0.16-0.144-0.238-0.216c-2.647-2.423-5.579-4.729-8.699-6.918
	c-5.72-4.012-12.07-7.626-18.465-10.833v17.751H193.24v-18.46h-18.461V40.849V36.93h-8.201h-10.264V18.465V4.704
	c-6.29,1.522-11.308,2.608-18.465,4.504c-4.826,1.278-10.639,2.93-18.464,5.328c-3.687,1.13-7.82,2.426-12.515,3.929
	c-0.768,0.246-1.539,0.493-2.337,0.75c-1.147,0.369-2.357,0.782-3.613,1.229c-5.481,1.949-11.902,4.585-18.465,7.486
	c-6.261,2.767-12.648,5.771-18.465,8.647c-0.239,0.118-0.472,0.235-0.708,0.353c-7.397,3.674-13.799,7.107-17.752,9.528
	c-0.143,0.088-0.297,0.18-0.433,0.265c-4.023,2.502-8.687,5.273-13.48,8.672c-1.51,1.071-3.032,2.203-4.552,3.411
	c-5.089,4.042-10.144,8.916-14.573,15.049c-1.363,1.888-2.665,3.896-3.892,6.035c-1.36,2.371-2.629,4.898-3.777,7.61
	c-0.658,1.553-1.244,3.166-1.768,4.819c-1.833,5.785-2.845,12.111-3.025,18.466c-0.179,6.3,0.456,12.623,1.929,18.465
	c1.427,5.658,3.638,10.859,6.641,15.151c0.26,0.371,0.521,0.741,0.793,1.099c0.572,0.753,1.124,1.489,1.672,2.215
	c3.639,4.812,7.18,9.133,16,14.568c0.232,0.144,0.448,0.283,0.688,0.428c1.903,1.148,3.972,2.312,6.207,3.469
	c3.454,1.788,7.31,3.562,11.57,5.25c5.475,2.171,11.621,4.199,18.461,5.932c5.673,1.438,11.83,2.667,18.465,3.61
	c5.784,0.821,11.936,1.421,18.465,1.742c1.937,0.096,3.899,0.171,5.902,0.216c4.221,0.094,8.41,0.135,12.563,0.128
	c6.252-0.01,12.414-0.139,18.464-0.383c6.294-0.255,12.457-0.641,18.465-1.159c6.343-0.548,12.518-1.237,18.465-2.092
	c6.428-0.922,12.592-2.033,18.461-3.328c6.555-1.446,12.738-3.124,18.465-5.055c4.367-1.474,8.463-3.096,12.277-4.861
	c2.153-0.997,4.226-2.036,6.188-3.13c7.625-4.247,13.761-9.223,18.078-14.979c0.089-0.119,0.168-0.236,0.257-0.355
	c0.045-0.061,0.086-0.121,0.131-0.182c4.644-6.288,7.859-12.381,9.811-18.283C260.552,122.873,261.189,116.719,260.54,110.785z
	 M156.314,55.395v18.46h-18.465v-18.46H156.314z M119.385,18.465h18.464V36.93h-18.464V18.465z M217.109,138.07
	c-0.122,3.704-0.803,6.9-1.793,9.645c-0.977,2.707-2.256,4.968-3.611,6.83c-3.735,5.136-8.026,7.241-8.026,7.241
	c-1.084,0.661-3.961,2.008-10.438,3.689c-0.882,0.229-1.833,0.464-2.854,0.704c-4.006,0.944-9.119,1.97-15.607,3.024
	c-5.219,0.849-11.315,1.716-18.465,2.574c-0.022,0.002-0.044,0.005-0.066,0.008c-4.474,0.536-10.723,0.975-18.398,1.163
	c-5.47,0.135-11.664,0.142-18.464-0.035c-5.748-0.149-11.929-0.432-18.465-0.877c-5.884-0.401-12.056-0.937-18.465-1.63
	c-0.165-0.018-0.327-0.034-0.492-0.052c-5.833-0.637-11.938-1.756-17.973-3.245c-1.199-0.296-2.394-0.606-3.584-0.931
	c-5.138-1.399-10.162-3.061-14.876-4.906c-6.044-2.367-11.575-5.036-16.109-7.879c-0.832-0.521-1.606-1.05-2.356-1.582
	c-1.892-1.341-3.533-2.711-4.965-4.098c-4.887-4.73-7.375-9.641-9.229-14.164c-0.578-1.409-1.033-2.849-1.401-4.301
	c-1.587-6.254-1.373-12.772-0.485-18.465c1.455-9.331,4.696-16.43,4.696-16.43s4.539,1.41,11.386,3.352
	c5.156,1.462,11.621,3.223,18.465,4.915c6.082,1.504,12.451,2.949,18.461,4.078c2.858,0.537,5.637,1.006,8.258,1.37
	c3.472,0.483,6.862,0.862,10.207,1.168c6.291,0.575,12.401,0.863,18.465,0.926c6.146,0.062,12.252-0.099,18.465-0.404
	c5.591-0.275,11.269-0.664,17.147-1.115c0.429-0.033,0.87-0.069,1.316-0.106c5.254-0.442,11.683-1.192,18.465-2.085
	c6.07-0.799,12.42-1.712,18.465-2.619c6.832-1.026,13.268-2.046,18.461-2.888c7.308-1.185,12.152-2.017,12.152-2.017
	c2.236,2.236,4.432,5.647,6.312,9.877c0.285,0.641,0.56,1.301,0.829,1.979c2.085,5.249,3.669,11.57,4.302,18.465
	C217.098,132.107,217.208,135.056,217.109,138.07z"/>
<polygon points="193.24,55.395 210.277,55.395 211.705,55.395 211.705,36.93 193.24,36.93 193.24,47.824 "/>
<rect x="174.779" y="18.465" width="18.461" height="18.465"/>
<polygon points="230.169,2 230.169,0 211.705,0 211.705,2 211.705,18.465 230.169,18.465 "/>
</svg>
